<svg id="Capa_1" enable-background="new 0 0 512 512" height="512" viewBox="0 0 512 512" width="512" xmlns="http://www.w3.org/2000/svg"><g><g><g><circle cx="256" cy="256" fill="#8fe26a" r="256"/></g></g><path d="m366.754 190.719-90.206-90.206-94.545 94.545 65.544 65.544-15.632 15.632-96.333-96.333-10.568 10.568 96.333 96.333-22.663 22.663-97.997-97.997-25.575 8.585 106.492 106.492-74.79 74.79 107.223 107.223c13.656 2.251 27.669 3.442 41.963 3.442 128.881 0 235.5-95.244 253.354-219.182l-122.35-122.35z" fill="#58b354"/><g><path d="m134.51 180.427h242.988v208.145h-242.988z" fill="#515bdf"/><path d="m256 180.47h121.497v208.145h-121.497z" fill="#424edd"/><path d="m377.128 180.47c-25.838-33.042-70.434-54.874-121.128-54.874s-95.291 21.833-121.128 54.874z" fill="#f6df5a"/><path d="m256 125.596v54.874h121.128c-25.837-33.041-70.434-54.874-121.128-54.874z" fill="#edb943"/><g><path d="m267.803 126.308h-23.607l-8.744-25.794h41.096z" fill="#0051be"/></g><path d="m256 126.308h11.804l8.744-25.794h-20.548z" fill="#00347b"/><g><path d="m436.754 220.511-16.067-16.359-66.631 42.456 12.8 19.627 10.642-6.962z" fill="#424edd"/><path d="m75.259 220.199 16.066-16.36 66.632 42.457-12.8 19.626-10.642-6.961z" fill="#515bdf"/></g><path d="m125.014 170.47h261.993v20h-261.993z" fill="#edb943"/><path d="m256 170.47h131.006v20h-131.006z" fill="#ed8600"/></g><g><g><g><path d="m223.885 380.521c0 17.702-14.351 32.053-32.053 32.053s-32.053-14.351-32.053-32.053 32.053-55.042 32.053-55.042 32.053 37.34 32.053 55.042z" fill="#f6df5a"/></g></g><path d="m191.832 412.574c17.702 0 32.053-14.351 32.053-32.053s-32.052-55.04-32.053-55.042z" fill="#edb943"/><g><path d="m208.397 389.77c0 9.149-7.416 16.565-16.565 16.565s-16.565-7.416-16.565-16.565 16.565-28.445 16.565-28.445 16.565 19.297 16.565 28.445z" fill="#ff6426"/><path d="m208.396 389.77c0-9.149-16.565-28.445-16.565-28.445v45.01c9.149 0 16.565-7.416 16.565-16.565z" fill="#ff4c04"/></g></g><g><g><g><path d="m175.785 371.753c0 22.545-18.277 40.822-40.822 40.822s-40.822-18.277-40.822-40.822 40.822-70.1 40.822-70.1 40.822 47.554 40.822 70.1z" fill="#f6df5a"/></g></g><path d="m134.963 412.574c22.545 0 40.822-18.277 40.822-40.822s-40.82-70.098-40.822-70.1z" fill="#edb943"/><g><path d="m156.06 383.531c0 11.651-9.445 21.097-21.097 21.097s-21.097-9.445-21.097-21.097c0-11.651 21.097-36.227 21.097-36.227s21.097 24.576 21.097 36.227z" fill="#ff6426"/><path d="m156.06 383.531c0-11.651-21.097-36.227-21.097-36.227v57.324c11.652 0 21.097-9.445 21.097-21.097z" fill="#ff4c04"/></g></g></g></svg>